<svg width="644" height="384" viewBox="0 0 644 384" fill="none" xmlns="http://www.w3.org/2000/svg">
<path d="M349.501 182L414.001 155.5L461.001 169.5L469.001 212L381.001 186.5L349.501 182Z" fill="#D9D9D9"/>
<path d="M522.501 303L537.501 287.5L555.001 331.5L640.501 348.5L610.501 361.5L499.001 363L522.501 303Z" fill="#D9D9D9"/>
<path d="M464.501 332H398.501L333.001 356.5L369.501 382L389.501 352L464.501 332Z" fill="#D9D9D9"/>
<path d="M325.501 257L273.501 275.5L290.001 287L316.001 281L325.501 257Z" fill="#D9D9D9"/>
<path d="M110 277L114.5 260L170 273L223 267.5L235.5 271L247.5 282L210 299.5L188 320L133.5 303L110 277Z" fill="#D9D9D9"/>
<path d="M1.00098 287L29.001 233L63.001 210H76.501L96.001 186.5L126.501 178.5L185.501 124L224.501 118.279L270.501 63H288.001L353.501 1.5L392.001 47L426.501 70.5L421.501 83L439.001 122.5L503.001 142L478.001 169.5L511.501 221L551.501 215L608.001 227L603.001 282.5L642.501 305.5" stroke="#D9D9D9" stroke-width="2"/>
</svg>
